<?xml version="1.0" encoding="utf-8"?>
<!-- Generator: Adobe Illustrator 23.0.5, SVG Export Plug-In . SVG Version: 6.00 Build 0)  -->
<svg version="1.1" id="Слой_1" xmlns="http://www.w3.org/2000/svg" xmlns:xlink="http://www.w3.org/1999/xlink" x="0px" y="0px"
	 viewBox="0 0 40.5 27.1" style="enable-background:new 0 0 40.5 27.1;" xml:space="preserve">
<style type="text/css">
	.st0{fill:#E53112;}
	.st1{fill:#020203;}
	.st2{fill:#7C7C7D;}
	.st3{fill:#F6A119;}
</style>
<g>
	<g>
		<g>
			<polygon class="st0" points="33.8,12.1 38.2,7.6 38.2,4.9 31.1,12.1 			"/>
			<path class="st1" d="M37.8,0h-35C1.2,0,0,1.2,0,2.8v8.9c0,1.5,1.2,2.8,2.8,2.8h12.4c3.1-0.4,3-6.3,4.7-7.4c0.1-0.1,0.8-0.1,1,0
				c1.7,1.2,1.6,7,4.6,7.4h12.4c1.5,0,2.8-1.2,2.8-2.8V2.8C40.5,1.2,39.3,0,37.8,0z"/>
			<path class="st2" d="M15.9,9.6c0,1.3-1.1,2.4-2.4,2.4H4.7C3.4,12,2.3,11,2.3,9.6V4.8c0-1.3,1.1-2.4,2.4-2.4h8.8
				c1.3,0,2.4,1.1,2.4,2.4L15.9,9.6L15.9,9.6z"/>
			<path class="st3" d="M38.2,9.6c0,1.3-1.1,2.4-2.4,2.4H27c-1.3,0-2.4-1.1-2.4-2.4V4.8c0-1.3,1.1-2.4,2.4-2.4h8.8
				c1.3,0,2.4,1.1,2.4,2.4L38.2,9.6L38.2,9.6z"/>
			<path class="st2" d="M2.2,0.8h36.1c0.7,0,1.4,0.3,1.9,0.8C39.8,0.6,38.9,0,37.8,0h-35c-1.1,0-2,0.6-2.5,1.6
				C0.8,1.1,1.5,0.8,2.2,0.8z"/>
		</g>
	</g>
	<g>
		<path class="st1" d="M6.1,21.4c-0.6,0.7-1.6,1.3-2.8,1.3c-2,0-3.3-1.3-3.3-3.4c0-2.1,1.6-3.4,2.8-3.4c0.9,0,1.4,0.5,1.4,0.6
			L4.5,16H6v2.6H4.3c0-0.6-0.3-1.2-1-1.2c-0.7,0-1.1,0.8-1.1,1.9c0,0.9,0.5,1.8,1.4,1.8c0.8,0,1.4-0.8,1.5-0.9L6.1,21.4z"/>
		<path class="st1" d="M9.6,16v1.2H9v4.1h0.6v1.2H6.5v-1.2h0.6v-4.1H6.5V16H9.6z"/>
		<path class="st1" d="M16.6,17.2v5.3h-2L12.2,19v2.4h0.7v1.2h-2.9v-1.2h0.6v-4.1h-0.5V16h2.7l2.3,3.4v-2.2h-0.6V16h2.8v1.2
			L16.6,17.2L16.6,17.2z"/>
		<path class="st1" d="M23.3,16v2.1h-1.6v-0.8h-1.5v1.3H22v1.2h-1.8v1.5h1.5v-0.9h1.6v2.1h-5.6v-1.2h0.6v-4.1h-0.6V16H23.3z"/>
		<path class="st1" d="M30.3,17.7c-0.1,0.4-0.2,1-0.3,1.3l-1,3.6h-1.9L26,18.8c-0.1-0.2-0.2-0.7-0.2-1.2h0v3.7h0.5v1.2h-2.5v-1.2
			h0.5v-4.1h-0.5V16h3.5l0.9,3.5l0.9-3.5h3.6v1.2h-0.5v4.1h0.5v1.2h-2.9v-1.2h0.5v-3.1L30.3,17.7L30.3,17.7L30.3,17.7z"/>
		<path class="st1" d="M36.8,22.6v-1.2h0.9l-0.2-0.6h-1.9l-0.2,0.6h0.7v1.2h-3v-1.2h0.6l1.3-4.1h-0.4V16h3.6l1.6,5.3h0.6v1.2
			L36.8,22.6L36.8,22.6z M37.1,19.6l-0.6-2l-0.6,2H37.1z"/>
	</g>
	<g>
		<path class="st1" d="M8.7,24.3h0.4l1,1.8l0.3,0.6h0c0-0.3,0-0.6,0-0.9v-1.4h0.3v2.8h-0.4l-1-1.8L9,24.8h0c0,0.3,0.1,0.6,0.1,0.9
			v1.5H8.7V24.3z"/>
		<path class="st1" d="M11.5,24.3h1.6v0.3h-1.3v0.9h1.1v0.3h-1.1v1h1.3v0.3h-1.7V24.3z"/>
		<path class="st1" d="M13.5,24.3h0.4l0.3,1.5c0.1,0.3,0.1,0.6,0.2,0.9h0c0.1-0.3,0.1-0.6,0.2-0.9l0.4-1.5h0.3l0.4,1.5
			c0.1,0.3,0.1,0.6,0.2,0.9h0c0.1-0.3,0.1-0.6,0.2-0.9l0.3-1.5h0.3L16,27.1h-0.4l-0.4-1.7c-0.1-0.2-0.1-0.4-0.1-0.6h0
			c0,0.2-0.1,0.4-0.1,0.6l-0.4,1.7h-0.4L13.5,24.3z"/>
		<path class="st1" d="M19.5,27.1L18.8,26h-0.5v1.2H18v-2.8h0.9c0.6,0,1,0.2,1,0.8c0,0.4-0.3,0.7-0.6,0.8l0.7,1.2L19.5,27.1
			L19.5,27.1z M18.3,25.6h0.5c0.4,0,0.7-0.2,0.7-0.5c0-0.4-0.2-0.5-0.7-0.5h-0.5V25.6z"/>
		<path class="st1" d="M20.5,24.3h1.6v0.3h-1.3v0.9h1.1v0.3h-1.1v1h1.3v0.3h-1.7V24.3z"/>
		<path class="st1" d="M24,26.3h-1l-0.3,0.9h-0.4l0.9-2.8h0.4l0.9,2.8h-0.4L24,26.3z M23.9,26l-0.1-0.4c-0.1-0.3-0.2-0.6-0.3-0.9h0
			c-0.1,0.3-0.2,0.6-0.3,0.9L23.1,26H23.9z"/>
		<path class="st1" d="M25,24.3h0.4v2.5h1.2v0.3H25L25,24.3L25,24.3z"/>
		<path class="st1" d="M27.1,24.3h0.4v2.8h-0.4V24.3z"/>
		<path class="st1" d="M28.8,24.6H28v-0.3H30v0.3h-0.9v2.5h-0.4L28.8,24.6L28.8,24.6z"/>
		<path class="st1" d="M31,26l-0.8-1.7h0.4l0.4,0.8c0.1,0.2,0.2,0.4,0.3,0.6h0c0.1-0.2,0.2-0.4,0.3-0.6l0.4-0.8h0.4L31.3,26v1.1H31
			L31,26L31,26z"/>
	</g>
	<g>
		<rect x="32.5" y="25.5" class="st1" width="7.9" height="0.3"/>
		<rect x="0.1" y="25.5" class="st1" width="7.9" height="0.3"/>
	</g>
</g>
</svg>
